<mxfile host="app.diagrams.net" modified="2024-01-29T02:32:58.771Z" agent="Mozilla/5.0 (Windows NT 10.0; Win64; x64) AppleWebKit/537.36 (KHTML, like Gecko) Chrome/114.0.0.0 Safari/537.36" version="22.1.21" etag="7Ci9iKOvD6S75BATO7XL" type="github">
  <diagram name="第 1 页" id="aRQjhmERb2mB6CddDEo2">
    <mxGraphModel>
      <root>
        <mxCell id="0" />
        <mxCell id="1" parent="0" />
      </root>
    </mxGraphModel>
  </diagram>
</mxfile>
